<svg xmlns="http://www.w3.org/2000/svg" xmlns:xlink="http://www.w3.org/1999/xlink" width="500" zoomAndPan="magnify" viewBox="0 0 375 374.999991" height="500" preserveAspectRatio="xMidYMid meet" version="1.0"><defs><g><g id="id1"/><g id="id2"/></g><clipPath id="id3"><path d="M 211 5.171875 L 236 5.171875 L 236 27 L 211 27 Z M 211 5.171875 " clip-rule="nonzero"/></clipPath><clipPath id="id4"><path d="M 133.054688 83 L 155 83 L 155 108 L 133.054688 108 Z M 133.054688 83 " clip-rule="nonzero"/></clipPath><clipPath id="id5"><path d="M 211 164 L 236 164 L 236 185.921875 L 211 185.921875 Z M 211 164 " clip-rule="nonzero"/></clipPath><clipPath id="id6"><path d="M 292 83 L 313.804688 83 L 313.804688 108 L 292 108 Z M 292 83 " clip-rule="nonzero"/></clipPath><clipPath id="id7"><path d="M 61.410156 75 L 259.410156 75 L 259.410156 239.941406 L 61.410156 239.941406 Z M 61.410156 75 " clip-rule="nonzero"/></clipPath></defs><path fill="rgb(95.689392%, 73.728943%, 19.999695%)" d="M 284.96875 95.550781 C 284.96875 97.566406 284.871094 99.578125 284.671875 101.582031 C 284.476562 103.589844 284.179688 105.578125 283.785156 107.554688 C 283.394531 109.53125 282.90625 111.484375 282.320312 113.414062 C 281.734375 115.339844 281.054688 117.238281 280.285156 119.097656 C 279.515625 120.960938 278.652344 122.78125 277.703125 124.558594 C 276.753906 126.335938 275.71875 128.0625 274.597656 129.738281 C 273.480469 131.414062 272.28125 133.027344 271 134.585938 C 269.722656 136.144531 268.371094 137.636719 266.945312 139.0625 C 265.523438 140.484375 264.03125 141.839844 262.472656 143.117188 C 260.914062 144.394531 259.296875 145.59375 257.621094 146.714844 C 255.945312 147.832031 254.21875 148.867188 252.441406 149.816406 C 250.664062 150.769531 248.847656 151.628906 246.984375 152.398438 C 245.121094 153.171875 243.226562 153.847656 241.296875 154.433594 C 239.371094 155.019531 237.417969 155.507812 235.441406 155.902344 C 233.464844 156.292969 231.472656 156.589844 229.46875 156.789062 C 227.460938 156.984375 225.453125 157.082031 223.4375 157.082031 C 221.421875 157.082031 219.410156 156.984375 217.40625 156.789062 C 215.398438 156.589844 213.410156 156.292969 211.433594 155.902344 C 209.457031 155.507812 207.503906 155.019531 205.574219 154.433594 C 203.644531 153.847656 201.75 153.171875 199.890625 152.398438 C 198.027344 151.628906 196.207031 150.769531 194.429688 149.816406 C 192.652344 148.867188 190.925781 147.832031 189.25 146.714844 C 187.574219 145.59375 185.957031 144.394531 184.402344 143.117188 C 182.84375 141.839844 181.351562 140.484375 179.925781 139.0625 C 178.5 137.636719 177.148438 136.144531 175.871094 134.585938 C 174.59375 133.027344 173.394531 131.414062 172.273438 129.738281 C 171.15625 128.0625 170.121094 126.335938 169.167969 124.558594 C 168.21875 122.78125 167.359375 120.960938 166.585938 119.097656 C 165.816406 117.238281 165.136719 115.339844 164.554688 113.414062 C 163.96875 111.484375 163.480469 109.53125 163.085938 107.554688 C 162.691406 105.578125 162.398438 103.589844 162.199219 101.582031 C 162.003906 99.578125 161.902344 97.566406 161.902344 95.550781 C 161.902344 93.535156 162.003906 91.527344 162.199219 89.519531 C 162.398438 87.515625 162.691406 85.523438 163.085938 83.546875 C 163.480469 81.570312 163.96875 79.617188 164.554688 77.6875 C 165.136719 75.761719 165.816406 73.867188 166.585938 72.003906 C 167.359375 70.140625 168.21875 68.320312 169.167969 66.542969 C 170.121094 64.769531 171.15625 63.042969 172.273438 61.367188 C 173.394531 59.691406 174.59375 58.074219 175.871094 56.515625 C 177.148438 54.957031 178.5 53.464844 179.925781 52.042969 C 181.351562 50.617188 182.84375 49.265625 184.402344 47.984375 C 185.957031 46.707031 187.574219 45.507812 189.25 44.390625 C 190.925781 43.269531 192.652344 42.234375 194.429688 41.285156 C 196.207031 40.335938 198.027344 39.472656 199.890625 38.703125 C 201.75 37.929688 203.644531 37.253906 205.574219 36.667969 C 207.503906 36.082031 209.457031 35.59375 211.433594 35.199219 C 213.410156 34.808594 215.398438 34.511719 217.40625 34.316406 C 219.410156 34.117188 221.421875 34.019531 223.4375 34.019531 C 225.453125 34.019531 227.460938 34.117188 229.46875 34.316406 C 231.472656 34.511719 233.464844 34.808594 235.441406 35.199219 C 237.417969 35.59375 239.371094 36.082031 241.296875 36.667969 C 243.226562 37.253906 245.121094 37.929688 246.984375 38.703125 C 248.847656 39.472656 250.664062 40.335938 252.441406 41.285156 C 254.21875 42.234375 255.945312 43.269531 257.621094 44.390625 C 259.296875 45.507812 260.914062 46.707031 262.472656 47.984375 C 264.03125 49.265625 265.523438 50.617188 266.945312 52.042969 C 268.371094 53.464844 269.722656 54.957031 271 56.515625 C 272.28125 58.074219 273.480469 59.691406 274.597656 61.367188 C 275.71875 63.042969 276.753906 64.769531 277.703125 66.542969 C 278.652344 68.320312 279.515625 70.140625 280.285156 72.003906 C 281.054688 73.867188 281.734375 75.761719 282.320312 77.6875 C 282.90625 79.617188 283.394531 81.570312 283.785156 83.546875 C 284.179688 85.523438 284.476562 87.515625 284.671875 89.519531 C 284.871094 91.527344 284.96875 93.535156 284.96875 95.550781 Z M 284.96875 95.550781 " fill-opacity="1" fill-rule="nonzero"/><g clip-path="url(#id3)"><path fill="rgb(95.689392%, 73.728943%, 19.999695%)" d="M 211.289062 26.214844 L 223.4375 5.171875 L 235.582031 26.214844 Z M 211.289062 26.214844 " fill-opacity="1" fill-rule="nonzero"/></g><path fill="rgb(95.689392%, 73.728943%, 19.999695%)" d="M 178.25 41.582031 L 178.246094 17.28125 L 199.289062 29.433594 Z M 178.25 41.582031 " fill-opacity="1" fill-rule="nonzero"/><path fill="rgb(95.689392%, 73.728943%, 19.999695%)" d="M 157.316406 71.40625 L 145.164062 50.363281 L 169.464844 50.363281 Z M 157.316406 71.40625 " fill-opacity="1" fill-rule="nonzero"/><g clip-path="url(#id4)"><path fill="rgb(95.689392%, 73.728943%, 19.999695%)" d="M 154.101562 107.699219 L 133.054688 95.554688 L 154.101562 83.40625 Z M 154.101562 107.699219 " fill-opacity="1" fill-rule="nonzero"/></g><path fill="rgb(95.689392%, 73.728943%, 19.999695%)" d="M 169.464844 140.738281 L 145.164062 140.746094 L 157.316406 119.699219 Z M 169.464844 140.738281 " fill-opacity="1" fill-rule="nonzero"/><path fill="rgb(95.689392%, 73.728943%, 19.999695%)" d="M 199.289062 161.671875 L 178.246094 173.824219 L 178.25 149.523438 Z M 199.289062 161.671875 " fill-opacity="1" fill-rule="nonzero"/><g clip-path="url(#id5)"><path fill="rgb(95.689392%, 73.728943%, 19.999695%)" d="M 235.582031 164.886719 L 223.4375 185.933594 L 211.289062 164.886719 Z M 235.582031 164.886719 " fill-opacity="1" fill-rule="nonzero"/></g><path fill="rgb(95.689392%, 73.728943%, 19.999695%)" d="M 268.625 149.523438 L 268.628906 173.824219 L 247.582031 161.671875 Z M 268.625 149.523438 " fill-opacity="1" fill-rule="nonzero"/><path fill="rgb(95.689392%, 73.728943%, 19.999695%)" d="M 289.554688 119.699219 L 301.710938 140.742188 L 277.410156 140.738281 Z M 289.554688 119.699219 " fill-opacity="1" fill-rule="nonzero"/><g clip-path="url(#id6)"><path fill="rgb(95.689392%, 73.728943%, 19.999695%)" d="M 292.769531 83.40625 L 313.820312 95.550781 L 292.769531 107.699219 Z M 292.769531 83.40625 " fill-opacity="1" fill-rule="nonzero"/></g><path fill="rgb(95.689392%, 73.728943%, 19.999695%)" d="M 277.410156 50.363281 L 301.707031 50.359375 L 289.554688 71.40625 Z M 277.410156 50.363281 " fill-opacity="1" fill-rule="nonzero"/><path fill="rgb(95.689392%, 73.728943%, 19.999695%)" d="M 247.582031 29.433594 L 268.625 17.277344 L 268.625 41.582031 Z M 247.582031 29.433594 " fill-opacity="1" fill-rule="nonzero"/><path fill="rgb(17.248535%, 34.118652%, 67.83905%)" d="M 249.929688 77.144531 L 63.441406 177.421875 L 70.890625 188.039062 L 227.515625 188.039062 L 257.378906 87.761719 Z M 249.929688 77.144531 " fill-opacity="1" fill-rule="nonzero"/><path fill="rgb(17.248535%, 34.118652%, 67.83905%)" d="M 93.304688 77.144531 L 63.441406 177.421875 L 220.066406 177.421875 L 249.929688 77.144531 Z M 93.304688 77.144531 " fill-opacity="1" fill-rule="nonzero"/><path fill="rgb(95.689392%, 73.728943%, 19.999695%)" d="M 138.269531 188.039062 L 159.460938 188.039062 L 159.460938 237.804688 L 138.269531 237.804688 Z M 138.269531 188.039062 " fill-opacity="1" fill-rule="nonzero"/><g clip-path="url(#id7)"><path fill="rgb(100%, 100%, 100%)" d="M 259.003906 86.613281 L 251.554688 75.996094 L 251.488281 75.929688 C 251.421875 75.863281 251.351562 75.726562 251.285156 75.660156 L 251.21875 75.589844 C 251.148438 75.523438 251.015625 75.457031 250.945312 75.386719 L 250.878906 75.320312 C 250.609375 75.183594 250.335938 75.117188 250.066406 75.117188 L 93.304688 75.117188 C 92.425781 75.117188 91.613281 75.726562 91.339844 76.539062 L 61.476562 176.816406 L 61.476562 177.828125 C 61.476562 177.964844 61.546875 178.097656 61.613281 178.234375 C 61.613281 178.300781 61.679688 178.300781 61.679688 178.371094 C 61.75 178.4375 61.75 178.574219 61.816406 178.640625 L 69.265625 189.257812 C 69.671875 189.796875 70.28125 190.136719 70.957031 190.136719 L 136.234375 190.136719 L 136.234375 235.84375 L 101.835938 235.84375 C 100.683594 235.84375 99.804688 236.722656 99.804688 237.875 C 99.804688 239.023438 100.683594 239.902344 101.835938 239.902344 L 195.757812 239.902344 C 196.910156 239.902344 197.789062 239.023438 197.789062 237.875 C 197.789062 236.722656 196.910156 235.84375 195.757812 235.84375 L 161.425781 235.84375 L 161.425781 190.066406 L 227.515625 190.066406 C 228.398438 190.066406 229.210938 189.460938 229.480469 188.648438 L 259.34375 88.371094 C 259.476562 87.761719 259.410156 87.085938 259.003906 86.613281 Z M 247.222656 79.175781 L 238.488281 108.519531 L 203.546875 108.519531 L 212.28125 79.175781 Z M 150.183594 141.921875 L 115.246094 141.921875 L 123.980469 112.578125 L 158.921875 112.578125 Z M 163.1875 112.578125 L 198.128906 112.578125 L 189.394531 141.921875 L 154.453125 141.921875 Z M 148.964844 145.980469 L 140.230469 175.328125 L 105.289062 175.328125 L 114.027344 145.980469 Z M 153.234375 145.980469 L 188.175781 145.980469 L 179.4375 175.328125 L 144.496094 175.328125 Z M 192.371094 145.980469 L 227.3125 145.980469 L 218.578125 175.328125 L 183.636719 175.328125 Z M 193.589844 141.921875 L 202.328125 112.578125 L 237.265625 112.578125 L 228.53125 141.921875 Z M 208.015625 79.175781 L 199.277344 108.519531 L 164.339844 108.519531 L 173.140625 79.175781 Z M 168.875 79.175781 L 160.140625 108.519531 L 125.199219 108.519531 L 133.933594 79.175781 Z M 94.792969 79.175781 L 129.734375 79.175781 L 121 108.519531 L 86.058594 108.519531 Z M 84.839844 112.578125 L 119.78125 112.578125 L 111.046875 141.921875 L 76.105469 141.921875 Z M 74.886719 145.980469 L 109.828125 145.980469 L 101.089844 175.328125 L 66.152344 175.328125 Z M 157.429688 235.710938 L 140.300781 235.710938 L 140.300781 190.066406 L 157.429688 190.066406 Z M 226.027344 186.011719 L 71.972656 186.011719 L 67.371094 179.453125 L 220.136719 179.453125 C 221.015625 179.453125 221.828125 178.84375 222.097656 178.03125 L 250.675781 81.742188 L 255.144531 88.101562 Z M 226.027344 186.011719 " fill-opacity="1" fill-rule="nonzero"/></g><g fill="rgb(23.139954%, 20.388794%, 20.388794%)" fill-opacity="1"><g transform="translate(67.460587, 366.159532)"><g><path d="M 8.796875 0 L 1.578125 0 L 1.578125 -12.53125 L 8.796875 -12.53125 L 8.796875 -10.34375 L 4.234375 -10.34375 L 4.234375 -7.59375 L 8.46875 -7.59375 L 8.46875 -5.421875 L 4.234375 -5.421875 L 4.234375 -2.1875 L 8.796875 -2.1875 Z M 8.796875 0 "/></g></g></g><g fill="rgb(23.139954%, 20.388794%, 20.388794%)" fill-opacity="1"><g transform="translate(80.730183, 366.159532)"><g><path d="M 12.6875 0 L 9.3125 0 L 3.859375 -9.46875 L 3.78125 -9.46875 C 3.894531 -7.800781 3.953125 -6.609375 3.953125 -5.890625 L 3.953125 0 L 1.578125 0 L 1.578125 -12.53125 L 4.921875 -12.53125 L 10.359375 -3.140625 L 10.421875 -3.140625 C 10.335938 -4.773438 10.296875 -5.925781 10.296875 -6.59375 L 10.296875 -12.53125 L 12.6875 -12.53125 Z M 12.6875 0 "/></g></g></g><g fill="rgb(23.139954%, 20.388794%, 20.388794%)" fill-opacity="1"><g transform="translate(98.438668, 366.159532)"><g><path d="M 8.796875 0 L 1.578125 0 L 1.578125 -12.53125 L 8.796875 -12.53125 L 8.796875 -10.34375 L 4.234375 -10.34375 L 4.234375 -7.59375 L 8.46875 -7.59375 L 8.46875 -5.421875 L 4.234375 -5.421875 L 4.234375 -2.1875 L 8.796875 -2.1875 Z M 8.796875 0 "/></g></g></g><g fill="rgb(23.139954%, 20.388794%, 20.388794%)" fill-opacity="1"><g transform="translate(111.708263, 366.159532)"><g><path d="M 4.234375 -6.96875 L 5.09375 -6.96875 C 5.925781 -6.96875 6.539062 -7.109375 6.9375 -7.390625 C 7.34375 -7.671875 7.546875 -8.109375 7.546875 -8.703125 C 7.546875 -9.296875 7.34375 -9.71875 6.9375 -9.96875 C 6.53125 -10.21875 5.894531 -10.34375 5.03125 -10.34375 L 4.234375 -10.34375 Z M 4.234375 -4.8125 L 4.234375 0 L 1.578125 0 L 1.578125 -12.53125 L 5.21875 -12.53125 C 6.925781 -12.53125 8.1875 -12.21875 9 -11.59375 C 9.820312 -10.976562 10.234375 -10.039062 10.234375 -8.78125 C 10.234375 -8.039062 10.03125 -7.382812 9.625 -6.8125 C 9.21875 -6.238281 8.644531 -5.785156 7.90625 -5.453125 C 9.789062 -2.640625 11.015625 -0.820312 11.578125 0 L 8.640625 0 L 5.640625 -4.8125 Z M 4.234375 -4.8125 "/></g></g></g><g fill="rgb(23.139954%, 20.388794%, 20.388794%)" fill-opacity="1"><g transform="translate(126.734564, 366.159532)"><g><path d="M 6.328125 -7.03125 L 11.296875 -7.03125 L 11.296875 -0.546875 C 10.492188 -0.273438 9.734375 -0.0859375 9.015625 0.015625 C 8.304688 0.117188 7.582031 0.171875 6.84375 0.171875 C 4.957031 0.171875 3.515625 -0.378906 2.515625 -1.484375 C 1.515625 -2.597656 1.015625 -4.195312 1.015625 -6.28125 C 1.015625 -8.300781 1.59375 -9.875 2.75 -11 C 3.90625 -12.132812 5.507812 -12.703125 7.5625 -12.703125 C 8.851562 -12.703125 10.09375 -12.445312 11.28125 -11.9375 L 10.40625 -9.8125 C 9.488281 -10.269531 8.535156 -10.5 7.546875 -10.5 C 6.398438 -10.5 5.476562 -10.113281 4.78125 -9.34375 C 4.09375 -8.570312 3.75 -7.535156 3.75 -6.234375 C 3.75 -4.867188 4.023438 -3.828125 4.578125 -3.109375 C 5.140625 -2.398438 5.953125 -2.046875 7.015625 -2.046875 C 7.566406 -2.046875 8.128906 -2.097656 8.703125 -2.203125 L 8.703125 -4.828125 L 6.328125 -4.828125 Z M 6.328125 -7.03125 "/></g></g></g><g fill="rgb(23.139954%, 20.388794%, 20.388794%)" fill-opacity="1"><g transform="translate(142.88344, 366.159532)"><g><path d="M 1.578125 0 L 1.578125 -12.53125 L 4.234375 -12.53125 L 4.234375 0 Z M 1.578125 0 "/></g></g></g><g fill="rgb(23.139954%, 20.388794%, 20.388794%)" fill-opacity="1"><g transform="translate(152.134039, 366.159532)"><g><path d="M 9.25 0 L 8.34375 -2.984375 L 3.765625 -2.984375 L 2.859375 0 L 0 0 L 4.421875 -12.578125 L 7.671875 -12.578125 L 12.109375 0 Z M 7.703125 -5.203125 C 6.859375 -7.910156 6.382812 -9.441406 6.28125 -9.796875 C 6.175781 -10.148438 6.101562 -10.425781 6.0625 -10.625 C 5.875 -9.894531 5.332031 -8.085938 4.4375 -5.203125 Z M 7.703125 -5.203125 "/></g></g></g><g fill="rgb(23.139954%, 20.388794%, 20.388794%)" fill-opacity="1"><g transform="translate(167.683061, 366.159532)"><g/></g></g><g fill="rgb(23.139954%, 20.388794%, 20.388794%)" fill-opacity="1"><g transform="translate(175.682545, 366.159532)"><g><path d="M 4.234375 -6.96875 L 5.09375 -6.96875 C 5.925781 -6.96875 6.539062 -7.109375 6.9375 -7.390625 C 7.34375 -7.671875 7.546875 -8.109375 7.546875 -8.703125 C 7.546875 -9.296875 7.34375 -9.71875 6.9375 -9.96875 C 6.53125 -10.21875 5.894531 -10.34375 5.03125 -10.34375 L 4.234375 -10.34375 Z M 4.234375 -4.8125 L 4.234375 0 L 1.578125 0 L 1.578125 -12.53125 L 5.21875 -12.53125 C 6.925781 -12.53125 8.1875 -12.21875 9 -11.59375 C 9.820312 -10.976562 10.234375 -10.039062 10.234375 -8.78125 C 10.234375 -8.039062 10.03125 -7.382812 9.625 -6.8125 C 9.21875 -6.238281 8.644531 -5.785156 7.90625 -5.453125 C 9.789062 -2.640625 11.015625 -0.820312 11.578125 0 L 8.640625 0 L 5.640625 -4.8125 Z M 4.234375 -4.8125 "/></g></g></g><g fill="rgb(23.139954%, 20.388794%, 20.388794%)" fill-opacity="1"><g transform="translate(190.70884, 366.159532)"><g><path d="M 8.796875 0 L 1.578125 0 L 1.578125 -12.53125 L 8.796875 -12.53125 L 8.796875 -10.34375 L 4.234375 -10.34375 L 4.234375 -7.59375 L 8.46875 -7.59375 L 8.46875 -5.421875 L 4.234375 -5.421875 L 4.234375 -2.1875 L 8.796875 -2.1875 Z M 8.796875 0 "/></g></g></g><g fill="rgb(23.139954%, 20.388794%, 20.388794%)" fill-opacity="1"><g transform="translate(203.978433, 366.159532)"><g><path d="M 12.6875 0 L 9.3125 0 L 3.859375 -9.46875 L 3.78125 -9.46875 C 3.894531 -7.800781 3.953125 -6.609375 3.953125 -5.890625 L 3.953125 0 L 1.578125 0 L 1.578125 -12.53125 L 4.921875 -12.53125 L 10.359375 -3.140625 L 10.421875 -3.140625 C 10.335938 -4.773438 10.296875 -5.925781 10.296875 -6.59375 L 10.296875 -12.53125 L 12.6875 -12.53125 Z M 12.6875 0 "/></g></g></g><g fill="rgb(23.139954%, 20.388794%, 20.388794%)" fill-opacity="1"><g transform="translate(221.686914, 366.159532)"><g><path d="M 12.953125 -6.28125 C 12.953125 -4.207031 12.4375 -2.613281 11.40625 -1.5 C 10.375 -0.382812 8.898438 0.171875 6.984375 0.171875 C 5.066406 0.171875 3.59375 -0.382812 2.5625 -1.5 C 1.53125 -2.613281 1.015625 -4.210938 1.015625 -6.296875 C 1.015625 -8.378906 1.53125 -9.96875 2.5625 -11.0625 C 3.59375 -12.164062 5.070312 -12.71875 7 -12.71875 C 8.925781 -12.71875 10.398438 -12.164062 11.421875 -11.0625 C 12.441406 -9.957031 12.953125 -8.363281 12.953125 -6.28125 Z M 3.796875 -6.28125 C 3.796875 -4.882812 4.0625 -3.832031 4.59375 -3.125 C 5.125 -2.414062 5.921875 -2.0625 6.984375 -2.0625 C 9.097656 -2.0625 10.15625 -3.46875 10.15625 -6.28125 C 10.15625 -9.101562 9.101562 -10.515625 7 -10.515625 C 5.945312 -10.515625 5.148438 -10.15625 4.609375 -9.4375 C 4.066406 -8.726562 3.796875 -7.675781 3.796875 -6.28125 Z M 3.796875 -6.28125 "/></g></g></g><g fill="rgb(23.139954%, 20.388794%, 20.388794%)" fill-opacity="1"><g transform="translate(239.09547, 366.159532)"><g><path d="M 8.71875 -12.53125 L 11.40625 -12.53125 L 7.140625 0 L 4.25 0 L 0 -12.53125 L 2.6875 -12.53125 L 5.03125 -5.078125 C 5.164062 -4.628906 5.300781 -4.113281 5.4375 -3.53125 C 5.582031 -2.945312 5.671875 -2.539062 5.703125 -2.3125 C 5.765625 -2.832031 5.976562 -3.753906 6.34375 -5.078125 Z M 8.71875 -12.53125 "/></g></g></g><g fill="rgb(23.139954%, 20.388794%, 20.388794%)" fill-opacity="1"><g transform="translate(253.941811, 366.159532)"><g><path d="M 9.25 0 L 8.34375 -2.984375 L 3.765625 -2.984375 L 2.859375 0 L 0 0 L 4.421875 -12.578125 L 7.671875 -12.578125 L 12.109375 0 Z M 7.703125 -5.203125 C 6.859375 -7.910156 6.382812 -9.441406 6.28125 -9.796875 C 6.175781 -10.148438 6.101562 -10.425781 6.0625 -10.625 C 5.875 -9.894531 5.332031 -8.085938 4.4375 -5.203125 Z M 4.84375 -13.625 L 4.84375 -13.859375 C 5.820312 -15.003906 6.492188 -15.863281 6.859375 -16.4375 L 9.78125 -16.4375 L 9.78125 -16.265625 C 9.488281 -15.960938 8.984375 -15.519531 8.265625 -14.9375 C 7.546875 -14.351562 6.984375 -13.914062 6.578125 -13.625 Z M 4.84375 -13.625 "/></g></g></g><g fill="rgb(23.139954%, 20.388794%, 20.388794%)" fill-opacity="1"><g transform="translate(269.490833, 366.159532)"><g><path d="M 8.71875 -12.53125 L 11.40625 -12.53125 L 7.140625 0 L 4.25 0 L 0 -12.53125 L 2.6875 -12.53125 L 5.03125 -5.078125 C 5.164062 -4.628906 5.300781 -4.113281 5.4375 -3.53125 C 5.582031 -2.945312 5.671875 -2.539062 5.703125 -2.3125 C 5.765625 -2.832031 5.976562 -3.753906 6.34375 -5.078125 Z M 8.71875 -12.53125 "/></g></g></g><g fill="rgb(23.139954%, 20.388794%, 20.388794%)" fill-opacity="1"><g transform="translate(284.337173, 366.159532)"><g><path d="M 8.796875 0 L 1.578125 0 L 1.578125 -12.53125 L 8.796875 -12.53125 L 8.796875 -10.34375 L 4.234375 -10.34375 L 4.234375 -7.59375 L 8.46875 -7.59375 L 8.46875 -5.421875 L 4.234375 -5.421875 L 4.234375 -2.1875 L 8.796875 -2.1875 Z M 8.796875 0 "/></g></g></g><g fill="rgb(23.139954%, 20.388794%, 20.388794%)" fill-opacity="1"><g transform="translate(297.606766, 366.159532)"><g><path d="M 1.578125 0 L 1.578125 -12.53125 L 4.234375 -12.53125 L 4.234375 -2.1875 L 9.3125 -2.1875 L 9.3125 0 Z M 1.578125 0 "/></g></g></g><g fill="rgb(23.139954%, 20.388794%, 20.388794%)" fill-opacity="1"><g transform="translate(57.160896, 287.750076)"><g><path d="M 26.53125 -10.578125 C 26.53125 -8.410156 25.976562 -6.488281 24.875 -4.8125 C 23.78125 -3.144531 22.203125 -1.847656 20.140625 -0.921875 C 18.078125 0.00390625 15.65625 0.46875 12.875 0.46875 C 10.5625 0.46875 8.617188 0.304688 7.046875 -0.015625 C 5.472656 -0.335938 3.835938 -0.90625 2.140625 -1.71875 L 2.140625 -10.09375 C 3.929688 -9.175781 5.796875 -8.457031 7.734375 -7.9375 C 9.671875 -7.425781 11.453125 -7.171875 13.078125 -7.171875 C 14.472656 -7.171875 15.492188 -7.410156 16.140625 -7.890625 C 16.796875 -8.378906 17.125 -9.003906 17.125 -9.765625 C 17.125 -10.242188 16.988281 -10.660156 16.71875 -11.015625 C 16.457031 -11.367188 16.035156 -11.726562 15.453125 -12.09375 C 14.878906 -12.457031 13.335938 -13.203125 10.828125 -14.328125 C 8.554688 -15.359375 6.851562 -16.359375 5.71875 -17.328125 C 4.59375 -18.296875 3.753906 -19.40625 3.203125 -20.65625 C 2.648438 -21.914062 2.375 -23.40625 2.375 -25.125 C 2.375 -28.332031 3.539062 -30.832031 5.875 -32.625 C 8.207031 -34.414062 11.414062 -35.3125 15.5 -35.3125 C 19.101562 -35.3125 22.78125 -34.476562 26.53125 -32.8125 L 23.640625 -25.546875 C 20.390625 -27.035156 17.582031 -27.78125 15.21875 -27.78125 C 13.988281 -27.78125 13.097656 -27.566406 12.546875 -27.140625 C 11.992188 -26.710938 11.71875 -26.179688 11.71875 -25.546875 C 11.71875 -24.867188 12.066406 -24.257812 12.765625 -23.71875 C 13.472656 -23.175781 15.394531 -22.191406 18.53125 -20.765625 C 21.53125 -19.410156 23.613281 -17.957031 24.78125 -16.40625 C 25.945312 -14.863281 26.53125 -12.921875 26.53125 -10.578125 Z M 26.53125 -10.578125 "/></g></g></g><g fill="rgb(23.139954%, 20.388794%, 20.388794%)" fill-opacity="1"><g transform="translate(109.527063, 287.750076)"><g><path d="M 36.34375 -17.453125 C 36.34375 -11.597656 34.90625 -7.144531 32.03125 -4.09375 C 29.15625 -1.050781 24.945312 0.46875 19.40625 0.46875 C 13.945312 0.46875 9.757812 -1.0625 6.84375 -4.125 C 3.925781 -7.1875 2.46875 -11.644531 2.46875 -17.5 C 2.46875 -23.289062 3.914062 -27.710938 6.8125 -30.765625 C 9.71875 -33.828125 13.929688 -35.359375 19.453125 -35.359375 C 24.992188 -35.359375 29.191406 -33.84375 32.046875 -30.8125 C 34.910156 -27.78125 36.34375 -23.328125 36.34375 -17.453125 Z M 12.375 -17.453125 C 12.375 -10.722656 14.71875 -7.359375 19.40625 -7.359375 C 21.789062 -7.359375 23.554688 -8.175781 24.703125 -9.8125 C 25.859375 -11.445312 26.4375 -13.992188 26.4375 -17.453125 C 26.4375 -20.929688 25.851562 -23.5 24.6875 -25.15625 C 23.519531 -26.8125 21.773438 -27.640625 19.453125 -27.640625 C 14.734375 -27.640625 12.375 -24.242188 12.375 -17.453125 Z M 12.375 -17.453125 "/></g></g></g><g fill="rgb(23.139954%, 20.388794%, 20.388794%)" fill-opacity="1"><g transform="translate(172.603384, 287.750076)"><g><path d="M 3.765625 0 L 3.765625 -34.8125 L 13.171875 -34.8125 L 13.171875 -7.59375 L 26.578125 -7.59375 L 26.578125 0 Z M 3.765625 0 "/></g></g></g><g fill="rgb(23.139954%, 20.388794%, 20.388794%)" fill-opacity="1"><g transform="translate(225.207559, 287.750076)"><g><path d="M 25.125 0 L 23.40625 -6.53125 L 12.09375 -6.53125 L 10.328125 0 L 0 0 L 11.359375 -34.953125 L 23.90625 -34.953125 L 35.40625 0 Z M 21.453125 -14.234375 L 19.953125 -19.953125 C 19.609375 -21.222656 19.1875 -22.863281 18.6875 -24.875 C 18.1875 -26.894531 17.851562 -28.34375 17.6875 -29.21875 C 17.550781 -28.40625 17.269531 -27.070312 16.84375 -25.21875 C 16.425781 -23.363281 15.492188 -19.703125 14.046875 -14.234375 Z M 21.453125 -14.234375 "/></g></g></g><g fill="rgb(23.139954%, 20.388794%, 20.388794%)" fill-opacity="1"><g transform="translate(284.832826, 287.750076)"><g><path d="M 13.171875 -12.671875 L 13.171875 0 L 3.765625 0 L 3.765625 -34.8125 L 15.171875 -34.8125 C 24.628906 -34.8125 29.359375 -31.382812 29.359375 -24.53125 C 29.359375 -20.5 27.390625 -17.378906 23.453125 -15.171875 L 33.59375 0 L 22.9375 0 L 15.546875 -12.671875 Z M 13.171875 -19.734375 L 14.9375 -19.734375 C 18.21875 -19.734375 19.859375 -21.1875 19.859375 -24.09375 C 19.859375 -26.488281 18.25 -27.6875 15.03125 -27.6875 L 13.171875 -27.6875 Z M 13.171875 -19.734375 "/></g></g></g><g fill="rgb(23.139954%, 20.388794%, 20.388794%)" fill-opacity="1"><g transform="translate(89.513269, 338.278133)"><g><path d="M 3.765625 0 L 3.765625 -34.8125 L 13.171875 -34.8125 L 13.171875 -7.59375 L 26.578125 -7.59375 L 26.578125 0 Z M 3.765625 0 "/></g></g></g><g fill="rgb(23.139954%, 20.388794%, 20.388794%)" fill-opacity="1"><g transform="translate(142.11744, 338.278133)"><g><path d="M 3.765625 0 L 3.765625 -34.8125 L 13.21875 -34.8125 L 13.21875 0 Z M 3.765625 0 "/></g></g></g><g fill="rgb(23.139954%, 20.388794%, 20.388794%)" fill-opacity="1"><g transform="translate(183.321247, 338.278133)"><g><path d="M 18.9375 0 L 11.8125 -25.078125 L 11.59375 -25.078125 C 11.925781 -20.804688 12.09375 -17.488281 12.09375 -15.125 L 12.09375 0 L 3.765625 0 L 3.765625 -34.8125 L 16.28125 -34.8125 L 23.546875 -10.09375 L 23.734375 -10.09375 L 30.859375 -34.8125 L 43.40625 -34.8125 L 43.40625 0 L 34.765625 0 L 34.765625 -15.265625 C 34.765625 -16.054688 34.773438 -16.9375 34.796875 -17.90625 C 34.828125 -18.875 34.9375 -21.25 35.125 -25.03125 L 34.90625 -25.03125 L 27.890625 0 Z M 18.9375 0 "/></g></g></g><g fill="rgb(23.139954%, 20.388794%, 20.388794%)" fill-opacity="1"><g transform="translate(254.680091, 338.278133)"><g><path d="M 29.03125 -23.734375 C 29.03125 -19.847656 27.878906 -16.84375 25.578125 -14.71875 C 23.285156 -12.601562 20.03125 -11.546875 15.8125 -11.546875 L 13.171875 -11.546875 L 13.171875 0 L 3.765625 0 L 3.765625 -34.8125 L 15.8125 -34.8125 C 20.207031 -34.8125 23.507812 -33.847656 25.71875 -31.921875 C 27.925781 -30.003906 29.03125 -27.273438 29.03125 -23.734375 Z M 13.171875 -19.21875 L 14.875 -19.21875 C 16.289062 -19.21875 17.414062 -19.613281 18.25 -20.40625 C 19.082031 -21.195312 19.5 -22.289062 19.5 -23.6875 C 19.5 -26.039062 18.195312 -27.21875 15.59375 -27.21875 L 13.171875 -27.21875 Z M 13.171875 -19.21875 "/></g></g></g></svg>